<svg width="150" height="150" viewBox="0 0 150 150" fill="none" xmlns="http://www.w3.org/2000/svg">
<circle cx="75" cy="75" r="75" fill="#43291F"/>
<path d="M14.3725 87.0786L13.5873 83.2147L16.822 82.5823L17.6024 86.4222C17.7644 87.2197 18.0928 87.8547 18.5874 88.3272C19.0837 88.8077 19.7398 89.1145 20.5558 89.2476C21.3813 89.3871 22.3524 89.3434 23.4689 89.1165L24.2225 88.9633C25.0599 88.7931 25.7766 88.5603 26.3725 88.2648C26.9781 87.9756 27.4598 87.6286 27.8177 87.2237C28.1835 86.8172 28.4255 86.3528 28.5435 85.8305C28.6632 85.3162 28.6607 84.7521 28.5359 84.138L27.7482 80.2621L30.9901 79.6033L31.7777 83.4792C32.0176 84.6595 32.0339 85.7814 31.8265 86.845C31.6287 87.9149 31.2279 88.8849 30.6241 89.755C30.0299 90.6315 29.2622 91.3688 28.3208 91.967C27.389 92.5716 26.305 92.9995 25.0689 93.2507L24.3392 93.399C23.111 93.6486 21.946 93.6778 20.8442 93.4865C19.744 93.3032 18.7501 92.928 17.8626 92.361C16.975 91.7939 16.2282 91.0613 15.6222 90.163C15.0257 89.2711 14.6091 88.243 14.3725 87.0786ZM31.4933 82.0795L14.0759 85.6192L13.2226 81.4204L30.64 77.8807L31.4933 82.0795ZM24.5355 86.4582L22.2507 86.9225L20.4736 78.178L22.7584 77.7136L24.5355 86.4582Z" fill="white"/>
<path d="M35.1527 101.885L21.0402 105.969L18.5138 102.123L36.9547 97.8242L38.5563 100.263L35.1527 101.885ZM25.3893 112.591L34.7372 101.252L37.5511 98.7322L39.1729 101.201L27.9224 116.448L25.3893 112.591ZM30.8358 108.809L28.0708 110.625L23.0649 103.004L25.8299 101.188L30.8358 108.809ZM19.7503 108.919C20.1856 108.634 20.6657 108.571 21.1905 108.733C21.7085 108.899 22.1529 109.264 22.5237 109.829C22.8945 110.394 23.0532 110.946 22.9998 111.488C22.9396 112.034 22.6919 112.449 22.2566 112.735C21.8212 113.021 21.3446 113.081 20.8266 112.915C20.3018 112.754 19.8539 112.391 19.4831 111.826C19.1123 111.261 18.957 110.706 19.0172 110.16C19.0706 109.619 19.3149 109.205 19.7503 108.919Z" fill="white"/>
<path d="M48.7565 111.06L37.5097 124.823L34.2014 122.119L45.4483 108.357L48.7565 111.06Z" fill="white"/>
<path d="M64.7733 130.561L60.4306 129.744L61.0427 126.493L65.3853 127.31C65.9771 127.422 66.4758 127.412 66.8813 127.282C67.2869 127.151 67.6067 126.925 67.8409 126.605C68.0846 126.278 68.2486 125.891 68.333 125.443C68.4233 124.963 68.4189 124.503 68.3197 124.062C68.2286 123.622 68.0224 123.244 67.7012 122.927C67.3815 122.602 66.9257 122.383 66.3339 122.272L63.5748 121.753L60.8984 135.968L56.6877 135.175L59.9761 117.709L66.946 119.021C68.3455 119.285 69.501 119.767 70.4123 120.469C71.3316 121.172 71.9789 122.022 72.3541 123.02C72.7308 124.01 72.8115 125.077 72.5961 126.221C72.3838 127.349 71.9267 128.281 71.2248 129.018C70.5229 129.756 69.6197 130.265 68.5151 130.545C67.4201 130.82 66.1728 130.825 64.7733 130.561Z" fill="white"/>
<path d="M89.2715 125.046L89.9087 128.279L80.9621 130.042L80.3249 126.809L89.2715 125.046ZM80.3621 119.61L83.7982 137.048L79.5943 137.876L76.1583 120.438L80.3621 119.61ZM90.734 117.566L94.17 135.004L89.9782 135.83L86.5421 118.392L90.734 117.566Z" fill="white"/>
<path d="M110.286 115.547L110.682 116.148C111.431 117.282 111.944 118.406 112.222 119.52C112.501 120.622 112.563 121.683 112.408 122.703C112.248 123.716 111.886 124.652 111.322 125.512C110.754 126.365 109.995 127.105 109.044 127.733C108.087 128.365 107.101 128.777 106.086 128.969C105.074 129.15 104.068 129.117 103.067 128.871C102.068 128.614 101.113 128.143 100.202 127.457C99.2931 126.76 98.4643 125.845 97.7153 124.711L97.3184 124.11C96.5695 122.976 96.053 121.854 95.7689 120.745C95.4916 119.631 95.4297 118.57 95.583 117.561C95.7387 116.542 96.1005 115.605 96.6685 114.753C97.2388 113.888 98.0027 113.14 98.9602 112.508C99.911 111.88 100.892 111.476 101.904 111.295C102.919 111.103 103.925 111.136 104.924 111.393C105.918 111.643 106.873 112.114 107.789 112.807C108.704 113.499 109.537 114.412 110.286 115.547ZM107.056 118.542L106.646 117.921C106.161 117.188 105.671 116.585 105.174 116.113C104.68 115.63 104.185 115.28 103.689 115.061C103.193 114.842 102.703 114.756 102.217 114.804C101.734 114.84 101.265 115.008 100.81 115.309C100.335 115.623 99.9856 115.995 99.7625 116.425C99.5349 116.848 99.4279 117.329 99.4414 117.866C99.4548 118.403 99.5865 118.994 99.8365 119.638C100.089 120.271 100.457 120.955 100.941 121.688L101.352 122.309C101.832 123.036 102.315 123.643 102.803 124.13C103.293 124.607 103.785 124.96 104.278 125.19C104.778 125.415 105.27 125.51 105.753 125.474C106.243 125.433 106.726 125.256 107.201 124.942C107.656 124.641 107.995 124.276 108.218 123.846C108.441 123.416 108.544 122.929 108.526 122.385C108.515 121.836 108.386 121.243 108.141 120.606C107.898 119.957 107.536 119.269 107.056 118.542Z" fill="white"/>
<path d="M115.593 94.5988L130.281 104.606L127.876 108.137L115.196 107.105L124.336 113.332L121.924 116.873L107.235 106.866L109.648 103.325L122.327 104.357L113.187 98.1297L115.593 94.5988Z" fill="white"/>
<path d="M127.752 79.8616L134.893 81.3759C135.157 81.7397 135.411 82.2677 135.655 82.9601C135.893 83.6427 136.045 84.4737 136.112 85.4529C136.179 86.432 136.08 87.5466 135.815 88.7965C135.57 89.9508 135.165 90.9588 134.6 91.8206C134.026 92.6807 133.31 93.3731 132.45 93.8978C131.583 94.4129 130.59 94.743 129.469 94.8881C128.343 95.0235 127.102 94.9477 125.749 94.6607L124.782 94.4556C123.428 94.1686 122.265 93.7306 121.292 93.1416C120.319 92.5525 119.544 91.8517 118.968 91.039C118.385 90.2166 118.002 89.316 117.818 88.337C117.637 87.3502 117.661 86.3154 117.89 85.2327C118.23 83.6325 118.76 82.3849 119.483 81.4898C120.197 80.5931 121.055 79.9805 122.056 79.6522C123.049 79.3221 124.139 79.2245 125.325 79.3595L124.472 83.3838C123.882 83.3419 123.364 83.3902 122.919 83.5287C122.467 83.6575 122.095 83.903 121.802 84.2651C121.501 84.6256 121.282 85.1282 121.145 85.7731C121.039 86.2746 121.049 86.7551 121.176 87.2147C121.305 87.6663 121.558 88.0818 121.935 88.4612C122.304 88.839 122.798 89.1767 123.417 89.4743C124.038 89.764 124.786 90.0017 125.662 90.1874L126.653 90.3976C127.521 90.5816 128.296 90.6712 128.979 90.6663C129.664 90.6535 130.257 90.5462 130.757 90.3445C131.251 90.1331 131.659 89.8202 131.98 89.4057C132.294 88.9816 132.519 88.4511 132.654 87.8142C132.748 87.3684 132.794 86.9787 132.79 86.6451C132.777 86.3097 132.738 86.0268 132.67 85.7961C132.596 85.5559 132.519 85.369 132.44 85.2356L129.741 84.6634L129.123 87.5771L126.245 86.9668L127.752 79.8616Z" fill="white"/>
<path d="M72.9844 100H60.3672L60.4453 89.4531H72.9844C75.5885 89.4531 77.7891 88.8281 79.5859 87.5781C81.4089 86.3281 82.7891 84.4661 83.7266 81.9922C84.6901 79.4922 85.1719 76.4193 85.1719 72.7734V70.3125C85.1719 67.5781 84.8984 65.1823 84.3516 63.125C83.8307 61.0417 83.0495 59.3099 82.0078 57.9297C80.9661 56.5234 79.6641 55.4688 78.1016 54.7656C76.5651 54.0625 74.7943 53.7109 72.7891 53.7109H60.1328V43.125H72.7891C76.6432 43.125 80.1719 43.7891 83.375 45.1172C86.6042 46.4193 89.3906 48.2943 91.7344 50.7422C94.1042 53.1641 95.9271 56.0417 97.2031 59.375C98.5052 62.6823 99.1562 66.3542 99.1562 70.3906V72.7734C99.1562 76.7839 98.5052 80.4557 97.2031 83.7891C95.9271 87.1224 94.1172 90 91.7734 92.4219C89.4297 94.8438 86.6562 96.7188 83.4531 98.0469C80.276 99.349 76.7865 100 72.9844 100ZM68.2188 43.125V100H54.5078V43.125H68.2188ZM77.5156 67.7344V75.1953H48.9609V67.7344H77.5156Z" fill="#DA2C38"/>
<path d="M100.031 55.7031H85.8906V45.1172H100.031C101.958 45.1172 103.521 44.7917 104.719 44.1406C105.917 43.4896 106.789 42.5911 107.336 41.4453C107.909 40.2734 108.195 38.9583 108.195 37.5C108.195 35.9375 107.909 34.4922 107.336 33.1641C106.789 31.8359 105.917 30.7682 104.719 29.9609C103.521 29.1276 101.958 28.7109 100.031 28.7109H91.0469V75H77.3359V18.125H100.031C104.589 18.125 108.508 18.9583 111.789 20.625C115.096 22.2917 117.635 24.5833 119.406 27.5C121.177 30.3906 122.062 33.6979 122.062 37.4219C122.062 41.0938 121.177 44.2969 119.406 47.0312C117.635 49.7656 115.096 51.901 111.789 53.4375C108.508 54.9479 104.589 55.7031 100.031 55.7031Z" fill="#DA2C38"/>
<circle cx="39.5" cy="32.5" r="6.5" fill="white"/>
<path d="M39.7734 34.3594C39.9876 34.3594 40.1699 34.3206 40.3203 34.2432C40.4753 34.1611 40.5915 34.0472 40.6689 33.9014C40.751 33.751 40.7897 33.571 40.7852 33.3613H42.9521C42.9567 33.9173 42.82 34.4049 42.542 34.8242C42.2686 35.2389 41.8949 35.5625 41.4209 35.7949C40.9515 36.0228 40.4206 36.1367 39.8281 36.1367C39.2493 36.1367 38.7435 36.0433 38.3105 35.8564C37.8776 35.665 37.5153 35.4007 37.2236 35.0635C36.9365 34.7217 36.7201 34.3229 36.5742 33.8672C36.4329 33.4115 36.3623 32.917 36.3623 32.3838V32.2266C36.3623 31.6934 36.4329 31.1989 36.5742 30.7432C36.7201 30.2829 36.9365 29.8841 37.2236 29.5469C37.5153 29.2051 37.8753 28.9408 38.3037 28.7539C38.7367 28.5625 39.2402 28.4668 39.8145 28.4668C40.4297 28.4668 40.972 28.583 41.4414 28.8154C41.9154 29.0479 42.2868 29.3851 42.5557 29.8271C42.8245 30.2692 42.9567 30.8047 42.9521 31.4336H40.7852C40.7897 31.2103 40.7555 31.0098 40.6826 30.832C40.6097 30.6543 40.4958 30.513 40.3408 30.4082C40.1904 30.2988 39.9967 30.2441 39.7598 30.2441C39.5228 30.2441 39.3314 30.2965 39.1855 30.4014C39.0397 30.5062 38.9281 30.652 38.8506 30.8389C38.7777 31.0212 38.7275 31.2308 38.7002 31.4678C38.6774 31.7048 38.666 31.9577 38.666 32.2266V32.3838C38.666 32.6572 38.6774 32.9147 38.7002 33.1562C38.7275 33.3932 38.7799 33.6029 38.8574 33.7852C38.9349 33.9629 39.0465 34.1042 39.1924 34.209C39.3382 34.3092 39.5319 34.3594 39.7734 34.3594Z" fill="#0A13FE"/>
</svg>
